HIERARCHY
ROOT Hips
{
    OFFSET 0.000000 0.000000 0.000000
    CHANNELS 6 Xposition Yposition Zposition Zrotation Xrotation Yrotation
    JOINT Spine
    {
        OFFSET -0.000000 14.517291 0.000000
        CHANNELS 3 Zrotation Xrotation Yrotation
        JOINT Spine1
        {
            OFFSET -0.000000 37.558300 0.000000
            CHANNELS 3 Zrotation Xrotation Yrotation
            JOINT Neck
            {
                OFFSET -0.000000 37.404057 3.400369
                CHANNELS 3 Zrotation Xrotation Yrotation
                JOINT Head
                {
                    OFFSET -0.000000 24.785618 -3.540803
                    CHANNELS 3 Zrotation Xrotation Yrotation
                    End Site
                    {
                        OFFSET -0.000000 35.408028 0.000000
                    }
                }
            }
            JOINT LeftShoulder
            {
                OFFSET 6.992933 33.973492 -0.192664
                CHANNELS 3 Zrotation Xrotation Yrotation
                JOINT LeftArm
                {
                    OFFSET 21.527611 0.000000 0.000000
                    CHANNELS 3 Zrotation Xrotation Yrotation
                    JOINT LeftForeArm
                    {
                        OFFSET 56.353916 0.000000 0.000000
                        CHANNELS 3 Zrotation Xrotation Yrotation
                        JOINT LeftHand
                        {
                            OFFSET 47.774071 0.000000 0.000000
                            CHANNELS 3 Zrotation Xrotation Yrotation
                            End Site
                            {
                                OFFSET 26.556021 0.000000 0.000000
                            }
                        }
                    }
                }
            }
            JOINT RightShoulder
            {
                OFFSET -7.065357 33.973492 -0.192664
                CHANNELS 3 Zrotation Xrotation Yrotation
                JOINT RightArm
                {
                    OFFSET -21.527611 0.000000 0.000000
                    CHANNELS 3 Zrotation Xrotation Yrotation
                    JOINT RightForeArm
                    {
                        OFFSET -56.353916 0.000000 0.000000
                        CHANNELS 3 Zrotation Xrotation Yrotation
                        JOINT RightHand
                        {
                            OFFSET -47.774071 0.000000 0.000000
                            CHANNELS 3 Zrotation Xrotation Yrotation
                            End Site
                            {
                                OFFSET -26.556021 0.000000 0.000000
                            }
                        }
                    }
                }
            }
        }
    }
    JOINT LeftUpLeg
    {
        OFFSET 17.704014 0.000000 0.000000
        CHANNELS 3 Zrotation Xrotation Yrotation
        JOINT LeftLeg
        {
            OFFSET -0.000000 -81.181816 0.000000
            CHANNELS 3 Zrotation Xrotation Yrotation
            JOINT LeftFoot
            {
                OFFSET -0.000000 -62.821102 0.000000
                CHANNELS 3 Zrotation Xrotation Yrotation
                JOINT LeftToeBase
                {
                    OFFSET -0.000000 -11.507608 26.556021
                    CHANNELS 3 Zrotation Xrotation Yrotation
                    End Site
                    {
                        OFFSET -0.000000 0.000000 7.081605
                    }
                }
            }
        }
    }
    JOINT RightUpLeg
    {
        OFFSET -17.704014 0.000000 0.000000
        CHANNELS 3 Zrotation Xrotation Yrotation
        JOINT RightLeg
        {
            OFFSET -0.000000 -81.181816 0.000000
            CHANNELS 3 Zrotation Xrotation Yrotation
            JOINT RightFoot
            {
                OFFSET -0.000000 -62.821102 0.000000
                CHANNELS 3 Zrotation Xrotation Yrotation
                JOINT RightToeBase
                {
                    OFFSET -0.000000 -11.507608 26.556021
                    CHANNELS 3 Zrotation Xrotation Yrotation
                    End Site
                    {
                        OFFSET -0.000000 0.000000 7.081605
                    }
                }
            }
        }
    }
}
MOTION
Frames:    5
Frame Time:    0.008333
-13.451499    152.672913    -97.065781    1.662819    -3.969767    46.186771    -0.232405    0.447735    -0.450577    -7.034983    0.769604    -0.103916    4.261481    4.668013    -20.040838    13.595011    -0.394164    -19.428041    6.090929    8.759028    -16.150524    -36.701855    19.768839    -47.895321    -4.023989    -20.952293    -120.563652    -7.217846    -26.687206    -12.454112    -19.220909    -7.555951    -6.391541    2.441287    -20.925457    33.116661    -3.305102    20.378822    55.104725    -30.746964    9.925349    43.349476    16.818981    -3.389221    -7.099786    -17.675571    38.728821    -20.559113    5.968052    -31.060839    51.967976    0.000000    0.000000    0.000000    -22.952414    -16.157709    -24.763414    8.503780    27.181299    -16.081362    4.467520    4.721198    -8.930587    0.000000    0.000000    0.000000    
-13.468894    152.675003    -97.060547    1.662473    -3.951045    46.222054    -0.254682    0.427729    -0.452715    -7.003253    0.799522    -0.103332    4.236999    4.682294    -20.062366    13.629065    -0.413054    -19.440495    6.083457    8.760442    -16.155985    -36.705307    19.767527    -47.896416    -4.018043    -20.968544    -120.558571    -7.221978    -26.692801    -12.447477    -19.201328    -7.526011    -6.419381    2.432161    -20.921385    33.119625    -3.274763    20.350363    55.084957    -30.785521    9.878461    43.299751    16.814781    -3.417977    -7.100669    -17.666382    38.727398    -20.574120    5.953332    -31.051952    51.954086    0.000000    0.000000    0.000000    -22.970510    -16.159502    -24.749390    8.527106    27.181280    -16.120564    4.467548    4.712694    -8.955731    0.000000    0.000000    0.000000    
-13.485326    152.677505    -97.057655    1.662782    -3.936430    46.265671    -0.274523    0.401271    -0.472428    -6.933086    0.832160    -0.108404    4.176095    4.704968    -20.074820    13.636185    -0.424438    -19.443819    6.024555    8.782155    -16.149843    -36.669811    19.753992    -47.900776    -4.036915    -20.992624    -120.565758    -7.174191    -26.752157    -12.426957    -19.266376    -7.502288    -6.415824    2.469932    -20.920586    33.115368    -3.240574    20.331594    55.054443    -30.880068    9.829729    43.206345    16.810720    -3.445948    -7.101726    -17.642172    38.729557    -20.623882    5.933586    -31.047529    51.951630    0.000000    0.000000    0.000000    -22.989603    -16.154577    -24.775305    8.533259    27.189518    -16.110586    4.463950    4.700519    -8.969407    0.000000    0.000000    0.000000    
-13.502275    152.678925    -97.052071    1.664093    -3.927402    46.302391    -0.279313    0.395813    -0.478972    -6.917022    0.846542    -0.109760    4.155899    4.705128    -20.078016    13.666437    -0.406399    -19.442938    6.011974    8.777792    -16.147001    -36.689735    19.750851    -47.884743    -4.050728    -20.965900    -120.561386    -7.192018    -26.746426    -12.418308    -19.249969    -7.489617    -6.433731    2.473533    -20.852648    33.117817    -3.266167    20.250631    55.038254    -30.895048    9.754072    43.196152    16.811621    -3.467139    -7.093761    -17.624094    38.731361    -20.666788    5.938138    -31.028896    51.953213    0.000000    0.000000    0.000000    -23.000221    -16.149717    -24.784912    8.543486    27.194353    -16.132912    4.455440    4.691802    -8.976597    0.000000    0.000000    0.000000    
-13.522291    152.682510    -97.050545    1.661754    -3.916040    46.334763    -0.285132    0.391511    -0.480664    -6.893123    0.851548    -0.110184    4.152400    4.701207    -20.087799    13.656365    -0.384986    -19.456902    5.999367    8.796556    -16.159159    -36.710548    19.725466    -47.872082    -4.069730    -20.927259    -120.563232    -7.191423    -26.740417    -12.405651    -19.247213    -7.482244    -6.435995    2.475276    -20.758778    33.103157    -3.277262    20.144917    55.015648    -30.868961    9.650409    43.223118    16.815144    -3.493167    -7.113005    -17.630249    38.724770    -20.656801    5.906439    -31.018797    51.927219    0.000000    0.000000    0.000000    -23.008512    -16.153549    -24.786736    8.548482    27.198509    -16.142756    4.460690    4.690566    -8.998170    0.000000    0.000000    0.000000    
